<?xml version="1.0" encoding="utf-8"?>
<!-- Generator: Adobe Illustrator 23.0.1, SVG Export Plug-In . SVG Version: 6.00 Build 0)  -->
<svg version="1.1" id="Layer_1" xmlns="http://www.w3.org/2000/svg" xmlns:xlink="http://www.w3.org/1999/xlink" x="0px" y="0px"
	 viewBox="0 0 500 500" style="enable-background:new 0 0 500 500;" xml:space="preserve">
<style type="text/css">
	.st0{enable-background:new    ;}
	.st1{fill:#3593F2;}
	.st2{font-family:'Grueber-Bold';}
	.st3{font-size:241.2617px;}
</style>
<g class="st0">
	
		<image style="overflow:visible;opacity:0.4;enable-background:new    ;" width="216" height="316" xlink:href="E24DBF70ABAD68D7.png"  transform="matrix(0.963 0 0 0.963 142.8155 59.7896)">
	</image>
	<g>
		<text transform="matrix(1 0 0 1 151.972 261.6995)" class="st1 st2 st3">H</text>
	</g>
</g>
<path class="st1" d="M475.1,262c-0.1-1.2-0.2-2.2-0.5-3.3c-0.3-1.1-0.6-2.1-1-3.2s-0.9-2-1.4-2.9c-0.6-1-1.2-1.8-1.8-2.7
	c-0.7-0.9-1.4-1.6-2.2-2.4c-0.8-0.8-1.6-1.4-2.6-2c-1-0.6-1.9-1.2-2.9-1.6c-1-0.5-2-0.9-3.2-1.2l-26.2-7.7l-26.2-7.7l-26.2-7.7
	l-26.2-7.7l-0.8-0.2c-5-1.4-10.2,1.4-11.8,6.4l0,0c-1.4,5,1.4,10.3,6.4,11.8l2.2,0.7l104.6,30.7c0.2,0.1,0.3,0.1,0.5,0.2
	s0.2,0.3,0.2,0.7c0,0.3,0,0.5-0.2,0.7c-0.1,0.1-0.3,0.2-0.4,0.2L355,293.5l-97.6,29.9c-1.7,0.6-3.7,0.6-5.4,0l-101.9-29.9
	L45.5,262.8c-0.2-0.1-0.3-0.1-0.5-0.2s-0.2-0.3-0.2-0.6s0-0.5,0.1-0.6c0.1-0.1,0.3-0.2,0.4-0.2l39.6-12.2l39.6-12.2l20.7-6.4
	c5-1.5,7.8-6.9,6.3-11.8l-0.2-0.7c-1.5-5-6.9-7.8-11.9-6.3l-0.2,0.1l-25.2,7.7l-25.2,7.7l-25.2,7.7l-25.2,7.7c-1.1,0.3-2,0.8-3,1.2
	c-1,0.5-1.8,1.1-2.7,1.6c-0.9,0.6-1.6,1.3-2.3,2c-0.7,0.8-1.4,1.5-1.9,2.4c-0.6,0.9-1.1,1.7-1.4,2.7c-0.4,1-0.8,1.9-1.1,2.9
	c-0.3,1.1-0.5,2-0.6,3.2s-0.1,2.2,0,3.3s0.2,2.2,0.5,3.3s0.6,2.1,1,3.2s0.9,2,1.4,2.9c0.6,0.9,1.2,1.8,1.8,2.7
	c0.7,0.9,1.4,1.6,2.2,2.4c0.8,0.8,1.6,1.4,2.6,2c1,0.6,1.9,1.2,2.9,1.6c1.1,0.5,2,0.9,3.2,1.2l26.2,7.7l26.2,7.7l26.2,7.7l26.2,7.7
	l26.2,7.7l26.2,7.7l26.2,7.7l26.2,7.7c0.2,0.1,0.4,0.1,0.6,0.2c0.2,0.1,0.4,0.1,0.6,0.1s0.4,0.1,0.6,0.1s0.4,0.1,0.6,0.1
	s0.4,0.1,0.6,0.1s0.4,0,0.6,0.1c0.2,0.1,0.4,0,0.6,0s0.4,0,0.6,0s0.4,0,0.6,0c0.2,0,0.4,0,0.6,0s0.4,0,0.6-0.1
	c0.2-0.1,0.4,0,0.6-0.1c0.2-0.1,0.4-0.1,0.6-0.1s0.4-0.1,0.6-0.1s0.4-0.1,0.6-0.1s0.4-0.1,0.6-0.2l25.1-7.7l25.1-7.7l25.1-7.7
	l25.1-7.7l25.1-7.7l25.1-7.7l25.1-7.7l25.1-7.7c1.1-0.3,2-0.8,3-1.2c1-0.4,1.8-1.1,2.7-1.6c0.9-0.6,1.6-1.3,2.3-2
	c0.7-0.8,1.4-1.5,1.9-2.4s1.1-1.7,1.4-2.7c0.4-1,0.8-1.9,1.1-2.9c0.3-1.1,0.5-2,0.6-3.2C475.1,264.2,475.2,263.1,475.1,262z"/>
<path class="st1" d="M473.8,315.2c-1.5-5.1-6.9-8-12.1-6.5l-200.2,60c-0.3,0.1-0.5,0.2-0.8,0.3l-10.1,3l0,0l-0.3,0.1
	c-0.7,0.2-1.4,0.2-2.2,0l-169.8-51L44.2,311c0,0,0,0-0.1,0l-2.5-0.8l0,0l-4.1-1.3c-4.9-1.5-10.3,1.4-11.9,6.5
	c-1.5,5.1,1.4,10.5,6.5,12.1l6.5,1.9c0.1,0,0.3,0.1,0.5,0.1l33.8,10.1l159.4,47.9c0.4,0.1,0.7,0.2,1.1,0.3l11.3,3.4
	c1.6,0.5,3.3,0.8,4.9,0.8c1.6,0,3.3-0.2,4.9-0.8l205.5-61.7c0.1,0,0.2-0.1,0.3-0.1l7.2-2.2C472.4,325.8,475.3,320.4,473.8,315.2z"/>
<path class="st1" d="M473.5,363.5c-1.5-5.1-6.9-8-12.1-6.5l-200.2,60c-0.3,0.1-0.5,0.2-0.8,0.3l-10.1,3l0,0l-0.3,0.1
	c-0.7,0.2-1.4,0.2-2.2,0L78,369.5l-34.2-10.2c0,0,0,0-0.1,0l-2.5-0.8l0,0l-4.1-1.3c-4.9-1.5-10.3,1.4-11.9,6.5
	c-1.5,5.1,1.4,10.5,6.5,12.1l6.5,1.9c0.1,0,0.3,0.1,0.5,0.1l33.8,10.1l159.4,47.9c0.4,0.1,0.7,0.2,1.1,0.3l11.3,3.4
	c1.6,0.5,3.3,0.8,4.9,0.8s3.3-0.2,4.9-0.8l205.5-61.7c0.1,0,0.2-0.1,0.3-0.1l7.2-2.2C472.2,374,475,368.6,473.5,363.5z"/>
</svg>
